<svg width="135" height="14" viewBox="0 0 135 14" fill="none" xmlns="http://www.w3.org/2000/svg">
<path d="M7.11 13.324C11.106 13.324 13.608 10.912 13.608 6.034C13.608 5.908 13.536 5.836 13.446 5.836H6.84C6.75 5.836 6.678 5.908 6.678 5.998V8.482C6.678 8.572 6.75 8.644 6.84 8.644H9.432C9.234 9.814 8.298 10.408 7.11 10.408C5.22 10.408 4.392 9.022 4.392 6.718C4.392 4.396 5.22 2.992 7.074 2.992C8.226 2.992 8.91 3.478 9.252 4.432C9.27 4.522 9.342 4.558 9.432 4.558H13.23C13.338 4.558 13.392 4.486 13.356 4.378C12.654 1.714 10.512 0.075999 6.984 0.075999C3.024 0.075999 0.288 2.758 0.288 6.7C0.288 10.552 3.006 13.324 7.11 13.324ZM17.9895 6.79L18.0615 0.561999C18.0615 0.471999 17.9895 0.399999 17.8995 0.399999H14.5155C14.4255 0.399999 14.3535 0.471999 14.3535 0.561999L14.4255 6.772L14.3535 12.838C14.3535 12.928 14.4255 13 14.5155 13H17.8995C17.9895 13 18.0615 12.928 18.0615 12.838L17.9895 6.79ZM24.9186 7.618C24.9006 9.886 24.1446 10.498 23.4246 10.498C22.8846 10.498 22.5786 10.156 22.5786 9.508V7.654L22.6326 3.892C22.6326 3.802 22.5606 3.73 22.4706 3.73H18.9606C18.8706 3.73 18.7986 3.802 18.7986 3.892L18.8526 7.654V9.616C18.8526 11.74 20.0226 13.216 22.2186 13.216C23.3346 13.216 24.3966 12.928 25.0986 11.92L25.0446 12.838C25.0446 12.946 25.0986 13 25.2066 13H28.5186C28.6086 13 28.6806 12.928 28.6806 12.838V8.41L28.7166 3.892C28.7166 3.802 28.6446 3.73 28.5546 3.73H25.0446C24.9546 3.73 24.8826 3.802 24.8826 3.892L24.9186 7.618ZM34.4198 10.804C33.7178 10.804 33.2318 10.516 33.1058 9.166H39.2078C39.2978 9.166 39.3698 9.112 39.3698 9.004C39.3158 5.296 37.5338 3.46 34.2938 3.46C31.4138 3.46 29.3618 5.368 29.3618 8.392C29.3618 11.326 31.3598 13.27 34.4558 13.27C37.2818 13.27 38.8658 11.56 39.1898 10.048C39.2258 9.94 39.1538 9.868 39.0458 9.868H35.7698C35.6798 9.868 35.6078 9.904 35.5898 10.012C35.3918 10.552 34.9958 10.804 34.4198 10.804ZM34.4198 5.818C35.1218 5.818 35.5358 6.358 35.5358 7.15H33.1598C33.3578 6.07 33.8258 5.818 34.4198 5.818ZM44.31 1.408H40.89C40.8 1.408 40.728 1.48 40.728 1.57L40.746 3.73H39.684C39.594 3.73 39.522 3.802 39.522 3.892V6.178C39.522 6.268 39.594 6.34 39.684 6.34H40.728L40.71 9.85C40.71 12.244 42.366 13.216 44.346 13.216C45.066 13.216 45.786 13.036 46.47 12.784C46.56 12.748 46.596 12.676 46.596 12.586V10.534C46.596 10.426 46.524 10.354 46.416 10.39C46.128 10.48 45.804 10.57 45.3 10.57C44.904 10.57 44.49 10.426 44.49 9.598L44.472 6.34H46.47C46.56 6.34 46.632 6.268 46.632 6.178V3.892C46.632 3.802 46.56 3.73 46.47 3.73H44.454L44.472 1.57C44.472 1.48 44.4 1.408 44.31 1.408ZM53.3424 7.618C53.3244 9.886 52.5684 10.498 51.8484 10.498C51.3084 10.498 51.0024 10.156 51.0024 9.508V7.654L51.0564 3.892C51.0564 3.802 50.9844 3.73 50.8944 3.73H47.3844C47.2944 3.73 47.2224 3.802 47.2224 3.892L47.2764 7.654V9.616C47.2764 11.74 48.4464 13.216 50.6424 13.216C51.7584 13.216 52.8204 12.928 53.5224 11.92L53.4684 12.838C53.4684 12.946 53.5224 13 53.6304 13H56.9424C57.0324 13 57.1044 12.928 57.1044 12.838V8.41L57.1404 3.892C57.1404 3.802 57.0684 3.73 56.9784 3.73H53.4684C53.3784 3.73 53.3064 3.802 53.3064 3.892L53.3424 7.618ZM62.7716 13.234C65.4716 13.234 67.3256 12.028 67.3256 10.03C67.3256 6.178 61.5296 7.636 61.5296 6.25C61.5296 5.89 61.8536 5.746 62.3756 5.746C62.9336 5.746 63.2756 6.034 63.4016 6.52C63.4376 6.61 63.4916 6.664 63.5816 6.664H66.7676C66.8756 6.664 66.9296 6.592 66.9116 6.484C66.5336 4.54 64.8416 3.496 62.2316 3.496C59.6756 3.496 57.9476 4.72 57.9476 6.718C57.9476 10.498 63.7256 9.22 63.7256 10.426C63.7256 10.804 63.4196 10.984 62.6456 10.984C61.9256 10.984 61.5296 10.696 61.4036 10.102C61.3856 10.012 61.3316 9.958 61.2416 9.958H57.8756C57.7676 9.958 57.7136 10.012 57.7316 10.12C57.9116 12.226 60.0176 13.234 62.7716 13.234ZM71.4452 3.712V13H72.5792V7.816C72.5792 7.324 72.6332 6.874 72.7412 6.466C72.8492 6.046 73.0112 5.686 73.2272 5.386C73.4552 5.074 73.7432 4.834 74.0912 4.666C74.4512 4.486 74.8712 4.396 75.3512 4.396C75.7112 4.396 76.0172 4.456 76.2692 4.576C76.5212 4.696 76.7192 4.864 76.8632 5.08C77.0192 5.284 77.1272 5.53 77.1872 5.818C77.2592 6.094 77.2952 6.388 77.2952 6.7V13H78.4292V7.744C78.4292 7.312 78.4652 6.898 78.5372 6.502C78.6212 6.094 78.7592 5.734 78.9512 5.422C79.1432 5.11 79.4012 4.864 79.7252 4.684C80.0492 4.492 80.4572 4.396 80.9492 4.396C81.7652 4.396 82.3352 4.6 82.6592 5.008C82.9832 5.404 83.1452 5.986 83.1452 6.754V13H84.2792V6.7C84.2792 4.528 83.2532 3.442 81.2012 3.442C80.5892 3.442 80.0132 3.592 79.4732 3.892C78.9332 4.192 78.5252 4.648 78.2492 5.26C78.0812 4.648 77.7452 4.192 77.2412 3.892C76.7492 3.592 76.1972 3.442 75.5852 3.442C74.8292 3.442 74.2052 3.604 73.7132 3.928C73.2332 4.252 72.8432 4.702 72.5432 5.278H72.4892V3.712H71.4452ZM86.4574 0.147999V1.966H87.5914V0.147999H86.4574ZM86.4574 3.712V13H87.5914V3.712H86.4574ZM89.7436 3.712V13H90.8776V7.582C90.8896 7.126 90.9616 6.706 91.0936 6.322C91.2376 5.926 91.4296 5.59 91.6696 5.314C91.9216 5.026 92.2216 4.804 92.5696 4.648C92.9296 4.48 93.3376 4.396 93.7936 4.396C94.2496 4.396 94.6276 4.468 94.9276 4.612C95.2396 4.756 95.4856 4.954 95.6656 5.206C95.8456 5.458 95.9716 5.758 96.0436 6.106C96.1156 6.442 96.1516 6.808 96.1516 7.204V13H97.2856V7.024C97.2856 6.472 97.2316 5.974 97.1236 5.53C97.0156 5.086 96.8296 4.714 96.5656 4.414C96.3016 4.102 95.9476 3.862 95.5036 3.694C95.0716 3.526 94.5316 3.442 93.8836 3.442C93.2236 3.442 92.6176 3.616 92.0656 3.964C91.5136 4.3 91.1296 4.75 90.9136 5.314H90.8776V3.712H89.7436ZM99.4476 0.147999V1.966H100.582V0.147999H99.4476ZM99.4476 3.712V13H100.582V3.712H99.4476ZM102.752 3.712V13H103.886V7.816C103.886 7.324 103.94 6.874 104.048 6.466C104.156 6.046 104.318 5.686 104.534 5.386C104.762 5.074 105.05 4.834 105.398 4.666C105.758 4.486 106.178 4.396 106.658 4.396C107.018 4.396 107.324 4.456 107.576 4.576C107.828 4.696 108.026 4.864 108.17 5.08C108.326 5.284 108.434 5.53 108.494 5.818C108.566 6.094 108.602 6.388 108.602 6.7V13H109.736V7.744C109.736 7.312 109.772 6.898 109.844 6.502C109.928 6.094 110.066 5.734 110.258 5.422C110.45 5.11 110.708 4.864 111.032 4.684C111.356 4.492 111.764 4.396 112.256 4.396C113.072 4.396 113.642 4.6 113.966 5.008C114.29 5.404 114.452 5.986 114.452 6.754V13H115.586V6.7C115.586 4.528 114.56 3.442 112.508 3.442C111.896 3.442 111.32 3.592 110.78 3.892C110.24 4.192 109.832 4.648 109.556 5.26C109.388 4.648 109.052 4.192 108.548 3.892C108.056 3.592 107.504 3.442 106.892 3.442C106.136 3.442 105.512 3.604 105.02 3.928C104.54 4.252 104.15 4.702 103.85 5.278H103.796V3.712H102.752ZM125.27 13V3.712H124.136V8.59C124.136 9.058 124.082 9.52 123.974 9.976C123.866 10.42 123.698 10.816 123.47 11.164C123.242 11.512 122.954 11.794 122.606 12.01C122.258 12.214 121.838 12.316 121.346 12.316C120.446 12.316 119.81 12.1 119.438 11.668C119.078 11.236 118.886 10.6 118.862 9.76V3.712H117.728V9.742C117.728 10.294 117.788 10.786 117.908 11.218C118.028 11.65 118.214 12.016 118.466 12.316C118.73 12.616 119.066 12.844 119.474 13C119.894 13.168 120.398 13.252 120.986 13.252C121.682 13.252 122.312 13.09 122.876 12.766C123.452 12.43 123.89 11.95 124.19 11.326H124.226V13H125.27ZM132.976 6.43H134.11C134.086 5.926 133.984 5.488 133.804 5.116C133.624 4.744 133.378 4.432 133.066 4.18C132.766 3.928 132.412 3.742 132.004 3.622C131.608 3.502 131.176 3.442 130.708 3.442C130.3 3.442 129.886 3.49 129.466 3.586C129.058 3.682 128.686 3.832 128.35 4.036C128.014 4.24 127.738 4.51 127.522 4.846C127.318 5.182 127.216 5.584 127.216 6.052C127.216 6.448 127.282 6.784 127.414 7.06C127.546 7.324 127.726 7.552 127.954 7.744C128.194 7.924 128.47 8.08 128.782 8.212C129.094 8.332 129.436 8.44 129.808 8.536L131.266 8.86C131.518 8.92 131.764 8.992 132.004 9.076C132.256 9.16 132.478 9.268 132.67 9.4C132.862 9.52 133.012 9.676 133.12 9.868C133.24 10.048 133.3 10.276 133.3 10.552C133.3 10.876 133.216 11.152 133.048 11.38C132.892 11.596 132.688 11.776 132.436 11.92C132.184 12.064 131.908 12.166 131.608 12.226C131.32 12.286 131.038 12.316 130.762 12.316C130.006 12.316 129.37 12.124 128.854 11.74C128.35 11.344 128.074 10.762 128.026 9.994H126.892C126.988 11.134 127.372 11.962 128.044 12.478C128.728 12.994 129.616 13.252 130.708 13.252C131.14 13.252 131.578 13.204 132.022 13.108C132.466 13.012 132.862 12.856 133.21 12.64C133.57 12.412 133.864 12.124 134.092 11.776C134.32 11.416 134.434 10.984 134.434 10.48C134.434 10.072 134.356 9.718 134.2 9.418C134.044 9.118 133.84 8.866 133.588 8.662C133.348 8.458 133.066 8.296 132.742 8.176C132.43 8.044 132.112 7.954 131.788 7.906L130.276 7.564C130.084 7.516 129.874 7.456 129.646 7.384C129.418 7.3 129.208 7.198 129.016 7.078C128.824 6.958 128.662 6.814 128.53 6.646C128.41 6.466 128.35 6.25 128.35 5.998C128.35 5.698 128.416 5.446 128.548 5.242C128.68 5.038 128.854 4.876 129.07 4.756C129.286 4.624 129.52 4.534 129.772 4.486C130.036 4.426 130.294 4.396 130.546 4.396C130.87 4.396 131.176 4.438 131.464 4.522C131.752 4.594 132.004 4.714 132.22 4.882C132.448 5.05 132.628 5.266 132.76 5.53C132.892 5.782 132.964 6.082 132.976 6.43Z" fill="#FFCAA5"/>
</svg>
